<svg width="32" height="32" viewBox="0 0 100 100" fill="none" xmlns="http://www.w3.org/2000/svg">
  <defs>
    <linearGradient id="leftFlameGradient" x1="0%" y1="100%" x2="100%" y2="0%">
      <stop offset="0%" stop-color="#b2a5c1" />
      <stop offset="50%" stop-color="#d8c5e8" />
      <stop offset="100%" stop-color="#f0e6f7" />
    </linearGradient>
    <linearGradient id="rightFlameGradient" x1="0%" y1="100%" x2="100%" y2="0%">
      <stop offset="0%" stop-color="#39293e" />
      <stop offset="30%" stop-color="#6c3baa" />
      <stop offset="70%" stop-color="#9d5fd4" />
      <stop offset="100%" stop-color="#c084fc" />
    </linearGradient>
  </defs>
  
  <!-- Left flame (lighter) -->
  <path 
    d="M15 85 Q10 75 12 65 Q15 55 18 50 Q22 45 25 40 Q28 35 30 30 Q32 25 35 22 Q38 18 40 20 Q42 25 40 30 Q38 35 35 42 Q32 48 30 55 Q28 62 25 70 Q22 78 20 85 Z" 
    fill="url(#leftFlameGradient)"
  />
  
  <!-- Right flame (darker) -->
  <path 
    d="M50 88 Q45 78 47 68 Q50 58 55 53 Q60 48 65 42 Q70 36 75 30 Q80 24 85 20 Q90 16 92 18 Q94 22 92 28 Q90 34 85 42 Q80 50 75 58 Q70 66 65 74 Q60 82 55 88 Z" 
    fill="url(#rightFlameGradient)"
  />
  
  <!-- Additional left flame wisp -->
  <path 
    d="M25 78 Q22 68 25 60 Q28 52 30 47 Q32 42 35 38 Q37 35 39 37 Q40 40 38 45 Q35 52 32 60 Q30 68 28 75 Z" 
    fill="url(#leftFlameGradient)" 
    opacity="0.7"
  />
  
  <!-- Additional right flame detail -->
  <path 
    d="M58 82 Q55 72 58 65 Q62 58 65 53 Q68 48 72 45 Q75 42 77 44 Q78 47 76 52 Q72 58 68 65 Q65 72 62 80 Z" 
    fill="url(#rightFlameGradient)" 
    opacity="0.8"
  />
</svg>